
<svg
   width="143.99635mm"
   height="19.85334mm"
   viewBox="0 0 143.99635 19.85334"
   version="1.1"
   id="svg5"
   xml:space="preserve"
   xmlns="http://www.w3.org/2000/svg"
   xmlns:svg="http://www.w3.org/2000/svg"><defs
     id="defs2" /><g
     id="layer1"
     transform="translate(-32.621143,-77.875023)"><rect
       style="opacity:1;fill:#ffffff;fill-opacity:1;stroke-width:0.270072"
       id="rect6913"
       width="143.99635"
       height="19.85334"
       x="32.621143"
       y="77.875023" /></g><g
     id="layer2"
     transform="translate(-32.621143,-77.875023)"><g
       id="g5719"
       transform="matrix(0.01673503,0,0,0.01671091,39.476935,83.877886)"><g
         id="g5665">
	<path
   d="m 483.4,454.444 -121.3,-121.4 c 28.7,-35.2 46,-80 46,-128.9 0,-112.5 -91.5,-204.1 -204.1,-204.1 -112.6,0 -204,91.6 -204,204.1 0,112.5 91.5,204 204.1,204 48.8,0 93.7,-17.3 128.9,-46 l 121.3,121.3 c 8.3,8.3 20.9,8.3 29.2,0 8.3,-8.3 8.3,-20.7 -0.1,-29 z M 40.7,204.144 c 0,-90.1 73.2,-163.3 163.3,-163.3 90.1,0 163.4,73.3 163.4,163.4 0,90.1 -73.3,163.4 -163.4,163.4 -90.1,0 -163.3,-73.4 -163.3,-163.5 z"
   id="path5663" />
</g><g
         id="g5667">
</g><g
         id="g5669">
</g><g
         id="g5671">
</g><g
         id="g5673">
</g><g
         id="g5675">
</g><g
         id="g5677">
</g><g
         id="g5679">
</g><g
         id="g5681">
</g><g
         id="g5683">
</g><g
         id="g5685">
</g><g
         id="g5687">
</g><g
         id="g5689">
</g><g
         id="g5691">
</g><g
         id="g5693">
</g><g
         id="g5695">
</g></g></g></svg>
